<?xml version="1.0" encoding="UTF-8" standalone="no"?>
<!DOCTYPE svg PUBLIC "-//W3C//DTD SVG 1.1//EN"
 "http://www.w3.org/Graphics/SVG/1.1/DTD/svg11.dtd">
<!-- Generated by graphviz version 7.1.0 (0)
 -->
<!-- Pages: 1 -->
<svg width="2532pt" height="745pt"
 viewBox="0.00 0.00 2532.37 745.00" xmlns="http://www.w3.org/2000/svg" xmlns:xlink="http://www.w3.org/1999/xlink">
<g id="graph0" class="graph" transform="scale(1 1) rotate(0) translate(4 741)">
<polygon fill="white" stroke="none" points="-4,4 -4,-741 2528.37,-741 2528.37,4 -4,4"/>
<g id="clust1" class="cluster">
<title>cluster_2</title>
<polygon fill="none" stroke="blue" points="515.37,-125 515.37,-223 945.37,-223 945.37,-125 515.37,-125"/>
<text text-anchor="middle" x="730.37" y="-207.8" font-family="Times,serif" font-size="14.00">RAUC</text>
</g>
<g id="clust2" class="cluster">
<title>cluster_3</title>
<polygon fill="none" stroke="purple" points="1303.37,-365 1303.37,-463 2278.37,-463 2278.37,-365 1303.37,-365"/>
<text text-anchor="middle" x="1790.87" y="-447.8" font-family="Times,serif" font-size="14.00">Udisks2</text>
</g>
<g id="clust3" class="cluster">
<title>cluster_0</title>
<polygon fill="none" stroke="green" points="130.37,-254 130.37,-729 1295.37,-729 1295.37,-254 130.37,-254"/>
<text text-anchor="middle" x="712.87" y="-713.8" font-family="Times,serif" font-size="14.00">Caterpillar</text>
</g>
<g id="clust4" class="cluster">
<title>cluster_4</title>
<polygon fill="none" stroke="green" points="138.37,-262 138.37,-698 1287.37,-698 1287.37,-262 138.37,-262"/>
<text text-anchor="middle" x="712.87" y="-682.8" font-family="Times,serif" font-size="14.00">Block devices</text>
</g>
<g id="clust5" class="cluster">
<title>cluster_5</title>
<polygon fill="none" stroke="green" points="146.37,-270 146.37,-667 818.37,-667 818.37,-270 146.37,-270"/>
<text text-anchor="middle" x="482.37" y="-651.8" font-family="Times,serif" font-size="14.00">Filesystems</text>
</g>
<g id="clust6" class="cluster">
<title>cluster_6</title>
<polygon fill="none" stroke="green" points="154.37,-278 154.37,-463 810.37,-463 810.37,-278 154.37,-278"/>
<text text-anchor="middle" x="482.37" y="-447.8" font-family="Times,serif" font-size="14.00">Bundles</text>
</g>
<g id="clust7" class="cluster">
<title>cluster_1</title>
<polygon fill="none" stroke="gray" points="1977.37,-8 1977.37,-106 2361.37,-106 2361.37,-8 1977.37,-8"/>
<text text-anchor="middle" x="2169.37" y="-90.8" font-family="Times,serif" font-size="14.00">System</text>
</g>
<!-- Install bundle -->
<g id="node1" class="node">
<title>Install bundle</title>
<polygon fill="lightgrey" stroke="black" points="629.37,-169 523.47,-151 629.37,-133 735.28,-151 629.37,-169"/>
<text text-anchor="middle" x="629.37" y="-147.3" font-family="Times,serif" font-size="14.00">Install bundle</text>
</g>
<!-- Reboot -->
<g id="node15" class="node">
<title>Reboot</title>
<polygon fill="lightgrey" stroke="black" points="2291.37,-52 2229.71,-34 2291.37,-16 2353.04,-34 2291.37,-52"/>
<text text-anchor="middle" x="2291.37" y="-30.3" font-family="Times,serif" font-size="14.00">Reboot</text>
</g>
<!-- Install bundle&#45;&gt;Reboot -->
<g id="edge19" class="edge">
<title>Install bundle&#45;&gt;Reboot</title>
<path fill="none" stroke="black" d="M669.23,-139.27C691.21,-133.87 719.1,-127.88 744.37,-125 825.85,-115.71 2144.81,-137.87 2220.37,-106 2243.2,-96.37 2262.56,-75.56 2275.27,-58.94"/>
<polygon fill="black" stroke="black" points="2278.01,-61.12 2281.07,-50.98 2272.35,-57 2278.01,-61.12"/>
</g>
<!-- Test bundle -->
<g id="node2" class="node">
<title>Test bundle</title>
<polygon fill="lightgrey" stroke="black" points="845.37,-169 753.54,-151 845.37,-133 937.21,-151 845.37,-169"/>
<text text-anchor="middle" x="845.37" y="-147.3" font-family="Times,serif" font-size="14.00">Test bundle</text>
</g>
<!-- Compatible bundles -->
<g id="node13" class="node">
<title>Compatible bundles</title>
<path fill="lightgrey" stroke="black" d="M801.87,-405.73C801.87,-407.53 766.24,-409 722.37,-409 678.51,-409 642.87,-407.53 642.87,-405.73 642.87,-405.73 642.87,-376.27 642.87,-376.27 642.87,-374.47 678.51,-373 722.37,-373 766.24,-373 801.87,-374.47 801.87,-376.27 801.87,-376.27 801.87,-405.73 801.87,-405.73"/>
<path fill="none" stroke="black" d="M801.87,-405.73C801.87,-403.92 766.24,-402.45 722.37,-402.45 678.51,-402.45 642.87,-403.92 642.87,-405.73"/>
<text text-anchor="middle" x="722.37" y="-387.3" font-family="Times,serif" font-size="14.00">Compatible bundles</text>
</g>
<!-- Test bundle&#45;&gt;Compatible bundles -->
<g id="edge14" class="edge">
<title>Test bundle&#45;&gt;Compatible bundles</title>
<path fill="none" stroke="black" d="M845.8,-169.37C845.8,-201.86 841.97,-272.97 811.37,-322 800,-340.23 781.85,-355.4 764.91,-366.75"/>
<polygon fill="black" stroke="black" points="763.48,-363.5 756.94,-371.84 767.25,-369.4 763.48,-363.5"/>
</g>
<!-- Provide block devices -->
<g id="node3" class="node">
<title>Provide block devices</title>
<polygon fill="lightgrey" stroke="black" points="2113.37,-409 1956.02,-391 2113.37,-373 2270.73,-391 2113.37,-409"/>
<text text-anchor="middle" x="2113.37" y="-387.3" font-family="Times,serif" font-size="14.00">Provide block devices</text>
</g>
<!-- Block devices -->
<g id="node6" class="node">
<title>Block devices</title>
<polygon fill="lightgrey" stroke="black" points="1278.87,-613 1169.87,-613 1165.87,-609 1165.87,-577 1274.87,-577 1278.87,-581 1278.87,-613"/>
<polyline fill="none" stroke="black" points="1274.87,-609 1165.87,-609"/>
<polyline fill="none" stroke="black" points="1274.87,-609 1274.87,-577"/>
<polyline fill="none" stroke="black" points="1274.87,-609 1278.87,-613"/>
<text text-anchor="middle" x="1222.37" y="-591.3" font-family="Times,serif" font-size="14.00">Block devices</text>
</g>
<!-- Provide block devices&#45;&gt;Block devices -->
<g id="edge2" class="edge">
<title>Provide block devices&#45;&gt;Block devices</title>
<path fill="none" stroke="black" d="M2152.02,-405.06C2225.69,-431.83 2373.64,-495.74 2312.37,-559 2276.77,-595.76 1523.71,-595.39 1290.56,-594.39"/>
<polygon fill="black" stroke="black" points="1290.73,-590.89 1280.71,-594.35 1290.7,-597.89 1290.73,-590.89"/>
</g>
<!-- Mount block device -->
<g id="node4" class="node">
<title>Mount block device</title>
<polygon fill="lightgrey" stroke="black" points="1795.37,-409 1652.94,-391 1795.37,-373 1937.81,-391 1795.37,-409"/>
<text text-anchor="middle" x="1795.37" y="-387.3" font-family="Times,serif" font-size="14.00">Mount block device</text>
</g>
<!-- Mount points -->
<g id="node10" class="node">
<title>Mount points</title>
<polygon fill="lightgrey" stroke="black" points="808.37,-613 805.37,-617 784.37,-617 781.37,-613 696.37,-613 696.37,-577 808.37,-577 808.37,-613"/>
<text text-anchor="middle" x="752.37" y="-591.3" font-family="Times,serif" font-size="14.00">Mount points</text>
</g>
<!-- Mount block device&#45;&gt;Mount points -->
<g id="edge6" class="edge">
<title>Mount block device&#45;&gt;Mount points</title>
<path fill="none" stroke="black" d="M1769.92,-406.14C1740.49,-421.98 1690.19,-447.45 1644.37,-463 1492.31,-514.6 1450.25,-516.65 1291.37,-540 1083.83,-570.5 1024.65,-540.58 819.96,-575.72"/>
<polygon fill="black" stroke="black" points="819.57,-572.23 810.32,-577.41 820.77,-579.13 819.57,-572.23"/>
</g>
<!-- Unmount block device -->
<g id="node5" class="node">
<title>Unmount block device</title>
<polygon fill="lightgrey" stroke="black" points="1473.37,-409 1311.83,-391 1473.37,-373 1634.92,-391 1473.37,-409"/>
<text text-anchor="middle" x="1473.37" y="-387.3" font-family="Times,serif" font-size="14.00">Unmount block device</text>
</g>
<!-- Request mount -->
<g id="node7" class="node">
<title>Request mount</title>
<polygon fill="lightgrey" stroke="black" points="1148.37,-540 1033.58,-522 1148.37,-504 1263.16,-522 1148.37,-540"/>
<text text-anchor="middle" x="1148.37" y="-518.3" font-family="Times,serif" font-size="14.00">Request mount</text>
</g>
<!-- Block devices&#45;&gt;Request mount -->
<g id="edge3" class="edge">
<title>Block devices&#45;&gt;Request mount</title>
<path fill="none" stroke="black" d="M1204.46,-576.81C1194.61,-567.36 1182.26,-555.51 1171.67,-545.35"/>
<polygon fill="black" stroke="black" points="1174.35,-543.08 1164.71,-538.68 1169.51,-548.13 1174.35,-543.08"/>
</g>
<!-- Boot continues -->
<g id="node16" class="node">
<title>Boot continues</title>
<polygon fill="lightgrey" stroke="black" points="2098.37,-52 1985.26,-34 2098.37,-16 2211.49,-34 2098.37,-52"/>
<text text-anchor="middle" x="2098.37" y="-30.3" font-family="Times,serif" font-size="14.00">Boot continues</text>
</g>
<!-- Block devices&#45;&gt;Boot continues -->
<g id="edge4" class="edge">
<title>Block devices&#45;&gt;Boot continues</title>
<path fill="none" stroke="black" d="M1279.21,-593.49C1490.55,-591.43 2224.2,-582.63 2326.37,-559 2364.36,-550.21 2406.37,-561.99 2406.37,-523 2406.37,-523 2406.37,-523 2406.37,-150 2406.37,-107.53 2260.56,-119.76 2220.37,-106 2185.94,-94.21 2150.39,-72.2 2126.61,-55.8"/>
<polygon fill="black" stroke="black" points="2128.92,-53.14 2118.73,-50.25 2124.89,-58.87 2128.92,-53.14"/>
<text text-anchor="middle" x="2465.37" y="-343.8" font-family="Times,serif" font-size="14.00">no block devices</text>
</g>
<!-- Request mount&#45;&gt;Mount block device -->
<g id="edge5" class="edge">
<title>Request mount&#45;&gt;Mount block device</title>
<path fill="none" stroke="black" d="M1141.82,-504.85C1138.53,-493.82 1136.83,-479.68 1145.37,-471 1155.1,-461.12 1630.87,-466.13 1644.37,-463 1687.54,-452.99 1733.03,-429.6 1762.66,-412.38"/>
<polygon fill="black" stroke="black" points="1764.33,-415.46 1771.15,-407.36 1760.76,-409.44 1764.33,-415.46"/>
</g>
<!-- Request block devices -->
<g id="node8" class="node">
<title>Request block devices</title>
<polygon fill="lightgrey" stroke="black" points="987.37,-613 826.67,-595 987.37,-577 1148.08,-595 987.37,-613"/>
<text text-anchor="middle" x="987.37" y="-591.3" font-family="Times,serif" font-size="14.00">Request block devices</text>
</g>
<!-- Request block devices&#45;&gt;Provide block devices -->
<g id="edge1" class="edge">
<title>Request block devices&#45;&gt;Provide block devices</title>
<path fill="none" stroke="black" d="M1069.2,-585.73C1269.71,-565 1781.2,-509.18 1946.37,-463 1992.37,-450.14 2042.45,-427.61 2075.65,-411.38"/>
<polygon fill="black" stroke="black" points="2077.04,-414.59 2084.45,-407.02 2073.94,-408.32 2077.04,-414.59"/>
</g>
<!-- Find bundles -->
<g id="node9" class="node">
<title>Find bundles</title>
<polygon fill="lightgrey" stroke="black" points="670.37,-540 569.16,-522 670.37,-504 771.59,-522 670.37,-540"/>
<text text-anchor="middle" x="670.37" y="-518.3" font-family="Times,serif" font-size="14.00">Find bundles</text>
</g>
<!-- Available bundles -->
<g id="node14" class="node">
<title>Available bundles</title>
<path fill="lightgrey" stroke="black" d="M624.87,-405.73C624.87,-407.53 592.83,-409 553.37,-409 513.92,-409 481.87,-407.53 481.87,-405.73 481.87,-405.73 481.87,-376.27 481.87,-376.27 481.87,-374.47 513.92,-373 553.37,-373 592.83,-373 624.87,-374.47 624.87,-376.27 624.87,-376.27 624.87,-405.73 624.87,-405.73"/>
<path fill="none" stroke="black" d="M624.87,-405.73C624.87,-403.92 592.83,-402.45 553.37,-402.45 513.92,-402.45 481.87,-403.92 481.87,-405.73"/>
<text text-anchor="middle" x="553.37" y="-387.3" font-family="Times,serif" font-size="14.00">Available bundles</text>
</g>
<!-- Find bundles&#45;&gt;Available bundles -->
<g id="edge9" class="edge">
<title>Find bundles&#45;&gt;Available bundles</title>
<path fill="none" stroke="black" d="M635.36,-509.93C622.18,-504.4 607.86,-496.58 597.37,-486 579.27,-467.72 567.67,-440.6 560.96,-420.17"/>
<polygon fill="black" stroke="black" points="564.35,-419.31 558.08,-410.78 557.66,-421.36 564.35,-419.31"/>
</g>
<!-- Mount points&#45;&gt;Find bundles -->
<g id="edge7" class="edge">
<title>Mount points&#45;&gt;Find bundles</title>
<path fill="none" stroke="black" d="M732.52,-576.81C721.42,-567.2 707.46,-555.11 695.59,-544.84"/>
<polygon fill="black" stroke="black" points="698,-542.29 688.15,-538.39 693.42,-547.58 698,-542.29"/>
</g>
<!-- Mount points&#45;&gt;Boot continues -->
<g id="edge8" class="edge">
<title>Mount points&#45;&gt;Boot continues</title>
<path fill="none" stroke="black" d="M808.83,-577.64C810.02,-577.41 811.2,-577.2 812.37,-577 944.06,-554.55 1279.16,-550 1412.37,-540 1605.92,-525.47 2151.32,-606.16 2282.37,-463 2311.78,-430.87 2302.93,-403.4 2282.37,-365 2278.59,-357.94 2272.74,-360.95 2267.37,-355 2183.7,-262.31 2128.09,-120.67 2107.4,-61.95"/>
<polygon fill="black" stroke="black" points="2110.8,-61.08 2104.22,-52.78 2104.19,-63.37 2110.8,-61.08"/>
<text text-anchor="middle" x="2325.87" y="-343.8" font-family="Times,serif" font-size="14.00">no mount points</text>
</g>
<!-- Request install bundle -->
<g id="node11" class="node">
<title>Request install bundle</title>
<polygon fill="lightgrey" stroke="black" points="639.37,-322 476.49,-304 639.37,-286 802.26,-304 639.37,-322"/>
<text text-anchor="middle" x="639.37" y="-300.3" font-family="Times,serif" font-size="14.00">Request install bundle</text>
</g>
<!-- Request install bundle&#45;&gt;Install bundle -->
<g id="edge18" class="edge">
<title>Request install bundle&#45;&gt;Install bundle</title>
<path fill="none" stroke="black" d="M638.23,-285.68C636.52,-259.96 633.31,-211.41 631.26,-180.43"/>
<polygon fill="black" stroke="black" points="634.76,-180.38 630.61,-170.63 627.78,-180.84 634.76,-180.38"/>
</g>
<!-- Request test bundle -->
<g id="node12" class="node">
<title>Request test bundle</title>
<polygon fill="lightgrey" stroke="black" points="310.37,-322 162.41,-304 310.37,-286 458.34,-304 310.37,-322"/>
<text text-anchor="middle" x="310.37" y="-300.3" font-family="Times,serif" font-size="14.00">Request test bundle</text>
</g>
<!-- Request test bundle&#45;&gt;Test bundle -->
<g id="edge13" class="edge">
<title>Request test bundle&#45;&gt;Test bundle</title>
<path fill="none" stroke="black" d="M345.71,-289.84C377.2,-278.62 424.76,-262.95 467.37,-254 588.61,-228.54 628.53,-266.88 744.37,-223 773.79,-211.86 802.67,-190.16 821.97,-173.67"/>
<polygon fill="black" stroke="black" points="824.03,-176.51 829.24,-167.28 819.41,-171.25 824.03,-176.51"/>
</g>
<!-- Compatible bundles&#45;&gt;Unmount block device -->
<g id="edge17" class="edge">
<title>Compatible bundles&#45;&gt;Unmount block device</title>
<path fill="none" stroke="black" d="M802.03,-391C918.9,-391 1139.87,-391 1296.33,-391"/>
<polygon fill="black" stroke="black" points="1295.97,-394.5 1305.97,-391 1295.97,-387.5 1295.97,-394.5"/>
<text text-anchor="middle" x="1056.74" y="-397.8" font-family="Times,serif" font-size="14.00">no compatible bundles</text>
</g>
<!-- Compatible bundles&#45;&gt;Request install bundle -->
<g id="edge15" class="edge">
<title>Compatible bundles&#45;&gt;Request install bundle</title>
<path fill="none" stroke="black" d="M705.58,-372.8C693.26,-360.18 676.38,-342.9 662.74,-328.93"/>
<polygon fill="black" stroke="black" points="665.29,-326.53 655.8,-321.82 660.29,-331.42 665.29,-326.53"/>
</g>
<!-- Compatible bundles&#45;&gt;Boot continues -->
<g id="edge16" class="edge">
<title>Compatible bundles&#45;&gt;Boot continues</title>
<path fill="none" stroke="black" d="M668.77,-373.05C657.5,-369.97 645.62,-367.08 634.37,-365 418.64,-325.08 27.24,-433.52 153.37,-254 250.6,-115.62 345.66,-158.81 511.37,-125 794.83,-67.17 1678.44,-43.7 1989.06,-37.09"/>
<polygon fill="black" stroke="black" points="1988.87,-40.6 1998.79,-36.89 1988.72,-33.6 1988.87,-40.6"/>
<text text-anchor="middle" x="250.37" y="-234.8" font-family="Times,serif" font-size="14.00">no compatible bundles</text>
</g>
<!-- Available bundles&#45;&gt;Unmount block device -->
<g id="edge12" class="edge">
<title>Available bundles&#45;&gt;Unmount block device</title>
<path fill="none" stroke="black" d="M567.14,-409.26C581.64,-426.84 606.24,-452.28 634.37,-463 702.85,-489.09 1221.95,-477.77 1293.87,-463.75 1345.09,-453.77 1400.17,-429.15 1435.61,-411.32"/>
<polygon fill="black" stroke="black" points="1436.86,-414.61 1444.16,-406.94 1433.67,-408.38 1436.86,-414.61"/>
<text text-anchor="middle" x="1220.37" y="-474.8" font-family="Times,serif" font-size="14.00">no available bundles</text>
</g>
<!-- Available bundles&#45;&gt;Request test bundle -->
<g id="edge10" class="edge">
<title>Available bundles&#45;&gt;Request test bundle</title>
<path fill="none" stroke="black" d="M504.78,-373C462.1,-358.07 400.37,-336.48 357.98,-321.65"/>
<polygon fill="black" stroke="black" points="359.4,-318.44 348.81,-318.44 357.09,-325.05 359.4,-318.44"/>
</g>
<!-- Available bundles&#45;&gt;Boot continues -->
<g id="edge11" class="edge">
<title>Available bundles&#45;&gt;Boot continues</title>
<path fill="none" stroke="black" d="M481.63,-389.08C380.13,-386.9 200.29,-379.58 140.37,-355 66.2,-324.58 -29.05,-301.36 9.37,-231 51.15,-154.5 91.34,-151.5 174.37,-125 346.8,-69.98 1603.64,-43.65 1987.4,-36.84"/>
<polygon fill="black" stroke="black" points="1987.32,-40.34 1997.26,-36.66 1987.2,-33.34 1987.32,-40.34"/>
<text text-anchor="middle" x="82.87" y="-234.8" font-family="Times,serif" font-size="14.00">no available bundles</text>
</g>
</g>
</svg>
